<svg width="505" height="673" viewBox="0 0 505 673" fill="none" xmlns="http://www.w3.org/2000/svg">
<path opacity="0.15" d="M167.787 639.923C129.234 622.916 94.1168 599.989 63.3714 571.746C7.19688 522.308 -14.4417 441.398 9.86894 370.78C26.3985 324.119 44.9241 277.385 65.0822 231.689C70.9255 218.443 76.9514 205.214 83.0598 192.085C93.6044 169.475 105.031 146.3 116.953 123.153C119.788 117.731 122.189 113.007 124.696 108.33C132.65 93.6006 143.701 74.5812 158.983 57.7462C176.757 38.1339 201.232 22.431 231.673 11.012C258.771 0.851156 288.871 -2.32946 318.713 1.68362C348.995 5.70087 379.91 14.318 408.015 26.7166C440.841 41.1972 472.387 62.1674 499.307 87.4514C560.597 147.407 578.315 239.934 543.818 318.132C534.173 339.996 521.128 359.661 504.998 376.694C508.923 386.178 512.389 395.841 515.266 405.69C528.367 453.538 524.885 503.794 505.548 547.628C471.146 625.614 390.353 675.637 304.5 672.08C257.504 669.905 211.766 659.133 168.447 640.15L167.758 639.846L167.787 639.923ZM386.971 74.5636C363.32 64.1301 337.325 56.8566 311.771 53.4639C290.263 50.5215 268.87 52.7769 249.81 59.9383C227.201 68.394 209.596 79.438 197.476 92.8384C185.921 105.534 176.99 121.041 170.468 133.097C168.102 137.455 165.818 141.913 163.535 146.371C151.59 169.571 140.498 192.131 130.235 214.104C124.267 226.913 118.406 239.77 112.703 252.697C93.0611 297.222 75.0223 342.709 59.0203 387.887C41.6139 438.546 57.3105 496.881 98.2371 532.92C125.209 557.655 155.611 577.485 188.914 592.176C206.201 599.802 231.918 609.431 264.206 615.222C269.312 616.14 290.002 619.358 306.937 620.029C371.456 622.69 432.22 585.184 458.034 526.668C472.325 494.271 474.942 455.453 465.282 420.053C464.441 417.077 463.471 414.107 462.447 411.113C405.742 445.452 334.693 450.841 273.073 423.658C218.823 399.727 194.227 336.004 218.21 281.637C242.193 227.27 305.862 202.421 360.112 226.353C408.388 248.602 449.431 283.803 478.694 327.469C485.656 318.149 491.569 308.047 496.38 297.142C522.124 238.786 508.906 169.66 463.403 125.184C441.077 104.278 414.541 86.5984 387.018 74.4572L386.971 74.5636ZM338.591 273.989C311.015 261.824 278.145 274.586 265.754 302.674C253.364 330.762 266.099 363.642 294.046 375.971C341.72 397.002 396.918 391.929 439.944 363.756C415.782 324.754 380.444 293.278 338.538 273.966L338.591 273.989Z" fill="#5634BC"/>
</svg>
