<svg width="527" height="648" viewBox="0 0 527 648" fill="none" xmlns="http://www.w3.org/2000/svg">
<path opacity="0.15" d="M363.054 607.03C325.542 626.224 285.602 639.018 244.294 645.066C170.5 657.483 94.062 623.248 54.59 559.846C28.8029 517.591 4.2181 473.741 -18.5315 429.278C-25.126 416.39 -31.5922 403.371 -37.9287 390.35C-48.8258 367.907 -59.6043 344.424 -70.0494 320.574C-72.469 314.954 -74.6211 310.112 -76.6699 305.217C-83.084 289.755 -90.8748 269.184 -94.3021 246.707C-98.3129 220.544 -95.0639 191.647 -84.728 160.822C-75.5237 133.384 -59.0089 108.018 -37.0749 87.3909C-14.8591 66.4232 11.3247 47.8664 38.6719 33.8739C70.6114 17.5318 106.781 6.27503 143.379 1.32958C228.562 -8.42362 311.542 36.179 350.473 112.267C361.358 133.541 368.392 156.067 371.438 179.326C381.274 182.262 390.959 185.666 400.416 189.644C445.812 209.653 482.618 244.05 504.44 286.701C543.266 362.582 531.134 456.829 474.229 521.213C442.902 556.313 405.698 585.015 363.646 606.661L362.976 607.005L363.054 607.03ZM62.5325 80.3804C39.5195 92.1552 17.4805 107.742 -1.26807 125.434C-17.1157 140.269 -28.8574 158.294 -35.3201 177.602C-43.0162 200.481 -45.5483 221.108 -42.7922 238.965C-40.227 255.94 -33.8257 272.65 -28.5824 285.315C-26.6924 289.899 -24.6728 294.483 -22.6532 299.066C-12.1816 322.968 -1.66933 345.804 8.91006 367.626C15.0876 380.335 21.3684 392.993 27.804 405.57C49.971 448.894 73.8951 491.58 98.8639 532.49C127.201 577.947 182.372 602.556 236.15 593.522C272.356 588.19 306.919 577.102 339.323 560.523C356.144 551.916 379.835 538.031 404.692 516.626C408.625 513.242 424.17 499.215 435.371 486.495C478.126 438.102 487.34 367.293 458.208 310.356C442.079 278.834 413.605 252.322 380.04 237.493C377.2 236.269 374.283 235.149 371.314 234.055C362.202 299.719 321.576 358.255 261.619 388.933C208.834 415.941 143.869 394.842 116.802 341.942C89.736 289.043 110.605 223.961 163.39 196.952C211.103 173.519 264.305 163.867 316.648 168.696C313.805 157.415 309.695 146.455 304.266 135.844C275.213 79.0627 213.232 45.7257 150.019 52.9897C119.715 57.131 89.2592 66.5748 62.4795 80.2769L62.5325 80.3804ZM186.786 243.696C159.955 257.425 149.129 290.983 163.113 318.312C177.096 345.642 210.645 356.495 237.838 342.582C284.225 318.847 315.099 272.811 320.37 221.653C274.865 215.807 228.152 223.381 186.735 243.723L186.786 243.696Z" fill="#5634BC"/>
</svg>
