<svg width="23" height="14" viewBox="0 0 23 14" fill="none" xmlns="http://www.w3.org/2000/svg">
<path d="M2.78768 2.37351V5.38675H6.22013C6.83329 5.38675 7.32951 5.2755 7.70879 5.05298C8.09438 4.82428 8.28718 4.42252 8.28718 3.84768C8.28718 3.21104 8.03433 2.79073 7.52863 2.58675C7.09246 2.44459 6.53619 2.37351 5.85982 2.37351H2.78768ZM2.78768 7.64901V11.2927H6.22013C6.83329 11.2927 7.31055 11.2124 7.65189 11.0517C8.27138 10.755 8.58112 10.1863 8.58112 9.34569C8.58112 8.63488 8.28086 8.14658 7.68034 7.88079C7.34531 7.73245 6.87438 7.65519 6.26754 7.64901H2.78768ZM6.78904 0C8.5021 0.0247241 9.71579 0.509934 10.4301 1.45563C10.8599 2.03664 11.0749 2.73201 11.0749 3.54172C11.0749 4.37616 10.8599 5.0468 10.4301 5.55364C10.1899 5.83797 9.83589 6.09757 9.36812 6.33245C10.0824 6.58587 10.6197 6.98764 10.98 7.53775C11.3467 8.08786 11.53 8.75541 11.53 9.5404C11.53 10.3501 11.3214 11.0764 10.9042 11.7192C10.6387 12.1457 10.3068 12.5042 9.90859 12.7947C9.45978 13.1285 8.92879 13.3572 8.31563 13.4808C7.70879 13.6044 7.04821 13.6662 6.33391 13.6662H0V0H6.78904Z" fill="white"/>
<path d="M17.8449 5.4702C17.2191 5.4702 16.7324 5.66181 16.3847 6.04503C16.0434 6.42826 15.8285 6.94746 15.74 7.60265H19.9404C19.8962 6.90419 19.6781 6.37572 19.2862 6.01722C18.9006 5.65254 18.4202 5.4702 17.8449 5.4702ZM17.8449 3.29139C18.7046 3.29139 19.479 3.44901 20.168 3.76424C20.857 4.07947 21.4259 4.57704 21.8747 5.25695C22.2793 5.85651 22.5416 6.55188 22.6617 7.34305C22.7313 7.80662 22.7597 8.47417 22.7471 9.34569H15.6736C15.7115 10.3594 16.0371 11.0702 16.6502 11.4781C17.0232 11.7316 17.472 11.8583 17.9966 11.8583C18.5529 11.8583 19.0049 11.7038 19.3526 11.3947C19.5422 11.2278 19.7097 10.996 19.8551 10.6993H22.6143C22.5448 11.2989 22.2256 11.9077 21.6567 12.5258C20.7717 13.5086 19.5327 14 17.9398 14C16.6249 14 15.465 13.5859 14.4599 12.7576C13.4548 11.9294 12.9523 10.5819 12.9523 8.71523C12.9523 6.966 13.4042 5.62472 14.3082 4.69139C15.2185 3.75806 16.3974 3.29139 17.8449 3.29139Z" fill="white"/>
</svg>
