<svg width="20" height="20" viewBox="0 0 20 20" fill="none" xmlns="http://www.w3.org/2000/svg">
<path d="M9.76538 1.80194C12.3744 1.80194 12.6807 1.81385 13.7119 1.86148C14.6655 1.90514 15.1811 2.06787 15.5261 2.20679C15.9836 2.38936 16.3092 2.60369 16.6504 2.95297C16.9915 3.30224 17.2047 3.63564 17.3792 4.10399C17.511 4.45723 17.6738 4.98512 17.7165 5.9615C17.763 7.01727 17.7746 7.33082 17.7746 10.002C17.7746 12.6732 17.763 12.9867 17.7165 14.0425C17.6738 15.0189 17.5149 15.5467 17.3792 15.9C17.2009 16.3683 16.9915 16.7017 16.6504 17.051C16.3092 17.4003 15.9836 17.6186 15.5261 17.7972C15.1811 17.9321 14.6655 18.0988 13.7119 18.1425C12.6807 18.1901 12.3744 18.202 9.76538 18.202C7.15637 18.202 6.85011 18.1901 5.81891 18.1425C4.86524 18.0988 4.34965 17.9361 4.00462 17.7972C3.54717 17.6146 3.22153 17.4003 2.88038 17.051C2.53923 16.7017 2.32601 16.3683 2.15156 15.9C2.01975 15.5467 1.85693 15.0189 1.81429 14.0425C1.76777 12.9867 1.75614 12.6732 1.75614 10.002C1.75614 7.33082 1.76777 7.01727 1.81429 5.9615C1.85693 4.98512 2.01588 4.45723 2.15156 4.10399C2.32989 3.63564 2.53923 3.30224 2.88038 2.95297C3.22153 2.60369 3.54717 2.38539 4.00462 2.20679C4.34965 2.07184 4.86524 1.90514 5.81891 1.86148C6.85011 1.80988 7.16024 1.80194 9.76538 1.80194ZM9.76538 0C7.11372 0 6.78033 0.0119071 5.7375 0.0595356C4.69855 0.107164 3.98911 0.277833 3.36884 0.523914C2.72531 0.777932 2.18258 1.12324 1.63984 1.6789C1.0971 2.23457 0.763708 2.79421 0.511723 3.4491C0.271368 4.08414 0.104671 4.81048 0.0581503 5.87815C0.0116301 6.94185 0 7.28319 0 9.99802C0 12.7128 0.0116301 13.0542 0.0581503 14.1219C0.104671 15.1856 0.271368 15.9119 0.511723 16.5509C0.759831 17.2098 1.0971 17.7654 1.63984 18.3211C2.18258 18.8768 2.72919 19.2181 3.36884 19.4761C3.98911 19.7222 4.69855 19.8928 5.74138 19.9405C6.78421 19.9881 7.11372 20 9.76926 20C12.4248 20 12.7543 19.9881 13.7971 19.9405C14.8361 19.8928 15.5455 19.7222 16.1697 19.4761C16.8132 19.2221 17.3559 18.8768 17.8987 18.3211C18.4414 17.7654 18.7748 17.2058 19.0268 16.5509C19.2671 15.9159 19.4338 15.1895 19.4804 14.1219C19.5269 13.0542 19.5385 12.7168 19.5385 9.99802C19.5385 7.27922 19.5269 6.94185 19.4804 5.87418C19.4338 4.81048 19.2671 4.08414 19.0268 3.44513C18.7787 2.78627 18.4414 2.2306 17.8987 1.67494C17.3559 1.11927 16.8093 0.777932 16.1697 0.519944C15.5494 0.273864 14.84 0.103195 13.7971 0.0555666C12.7504 0.0119071 12.417 0 9.76538 0Z" fill="white"/>
<path d="M9.76643 4.86621C6.99848 4.86621 4.75 7.16428 4.75 10.0021C4.75 12.84 6.9946 15.1381 9.76643 15.1381C12.5383 15.1381 14.7829 12.84 14.7829 10.0021C14.7829 7.16428 12.5383 4.86621 9.76643 4.86621ZM9.76643 13.3322C7.96765 13.3322 6.51002 11.8398 6.51002 9.99818C6.51002 8.15654 7.96765 6.66419 9.76643 6.66419C11.5652 6.66419 13.0228 8.15654 13.0228 9.99818C13.0228 11.8398 11.5652 13.3322 9.76643 13.3322Z" fill="white"/>
<path d="M14.9833 5.85824C15.6299 5.85824 16.154 5.32159 16.154 4.65959C16.154 3.99759 15.6299 3.46094 14.9833 3.46094C14.3367 3.46094 13.8125 3.99759 13.8125 4.65959C13.8125 5.32159 14.3367 5.85824 14.9833 5.85824Z" fill="white"/>
</svg>
