<svg width="15" height="14" viewBox="0 0 15 14" fill="none" xmlns="http://www.w3.org/2000/svg">
<path d="M2.71209 2.48281H0V0H2.71209V2.48281ZM0 3.71005H2.71209V14H0V3.71005Z" fill="white"/>
<path d="M10.9797 3.4646C12.037 3.4646 12.9004 3.74466 13.5698 4.30479C14.2455 4.85862 14.5833 5.78062 14.5833 7.0708V14H11.8431V7.74107C11.8431 7.19982 11.7711 6.78445 11.6273 6.49494C11.3645 5.96628 10.864 5.70196 10.1258 5.70196C9.2186 5.70196 8.5961 6.08901 8.25826 6.86312C8.08308 7.2722 7.9955 7.79456 7.9955 8.43021V14H5.33033V3.72893H7.91104V5.22994C8.25513 4.70128 8.58046 4.32052 8.88701 4.08766C9.43756 3.67229 10.1351 3.4646 10.9797 3.4646Z" fill="white"/>
</svg>
