<svg width="21" height="20" viewBox="0 0 21 20" fill="none" xmlns="http://www.w3.org/2000/svg">
<path d="M17.6554 5.98396C17.6632 6.15996 17.6632 6.32796 17.6632 6.50396C17.6709 11.84 13.7257 18 6.511 18C4.38307 18 2.29398 17.368 0.5 16.184C0.810646 16.224 1.12129 16.24 1.43194 16.24C3.19485 16.24 4.91117 15.632 6.30131 14.504C4.62382 14.472 3.14826 13.344 2.63569 11.696C3.22592 11.816 3.83168 11.792 4.40637 11.624C2.58133 11.256 1.26885 9.59997 1.26108 7.67197C1.26108 7.65597 1.26108 7.63997 1.26108 7.62397C1.80471 7.93597 2.41824 8.11197 3.03953 8.12797C1.32321 6.94396 0.787347 4.58396 1.82801 2.73595C3.82391 5.26396 6.75951 6.79196 9.91257 6.95996C9.59416 5.55996 10.0291 4.08796 11.0464 3.09595C12.623 1.56795 15.1081 1.64795 16.5992 3.27195C17.4768 3.09595 18.3233 2.75995 19.0921 2.28795C18.797 3.22395 18.1835 4.01596 17.3681 4.51996C18.1447 4.42396 18.9058 4.20796 19.6202 3.88795C19.0921 4.70396 18.4243 5.40796 17.6554 5.98396Z" fill="white"/>
</svg>
