<svg width="21" height="20" viewBox="0 0 21 20" fill="none" xmlns="http://www.w3.org/2000/svg">
<g clip-path="url(#clip0_3_342)">
<path d="M19.712 5.19109C19.4799 4.33443 18.8002 3.65898 17.9381 3.42833C16.3631 3 10.0632 3 10.0632 3C10.0632 3 3.76336 3 2.18838 3.41186C1.34287 3.6425 0.646568 4.33443 0.414467 5.19109C0 6.75616 0 10.0016 0 10.0016C0 10.0016 0 13.2635 0.414467 14.8121C0.646568 15.6688 1.32629 16.3443 2.18838 16.5749C3.77993 17.0032 10.0632 17.0032 10.0632 17.0032C10.0632 17.0032 16.3631 17.0032 17.9381 16.5914C18.8002 16.3607 19.4799 15.6853 19.712 14.8286C20.1265 13.2635 20.1265 10.0181 20.1265 10.0181C20.1265 10.0181 20.1431 6.75616 19.712 5.19109Z" fill="white"/>
<path d="M8.0625 13.0006L13.3014 10.0022L8.0625 7.00391V13.0006Z" fill="#1B191A"/>
</g>
<defs>
<clipPath id="clip0_3_342">
<rect width="20.1266" height="20" fill="white"/>
</clipPath>
</defs>
</svg>
