<svg width="17" height="20" viewBox="0 0 17 20" fill="none" xmlns="http://www.w3.org/2000/svg">
<path d="M7.88902 20C6.60422 20 5.34241 19.7932 4.13714 19.385C1.96165 18.6993 0.362287 16.7147 0.171424 14.4526C0.0583194 12.9522 0 11.4253 0 9.90722C0 9.46717 0.00530176 9.02536 0.014138 8.58531C0.0300433 7.82716 0.0636211 7.0425 0.111337 6.25254C0.123708 6.06698 0.132544 5.90616 0.144915 5.74534C0.185562 5.23814 0.259786 4.57365 0.478926 3.918C0.73341 3.15455 1.22294 2.4176 1.93161 1.72661C2.56252 1.1116 3.36308 0.653884 4.24494 0.399399C5.13917 0.139613 6.10763 0 7.04427 0C8.1382 0 9.27631 0.196165 10.3384 0.569055C12.7861 1.48449 14.419 3.84024 14.419 6.4381C14.419 7.16444 14.2971 7.87134 14.0567 8.5429C14.2829 8.7585 14.4985 8.98471 14.7 9.22329C15.6543 10.3932 16.1757 11.8335 16.1757 13.2897C16.1757 15.8805 14.5374 18.2628 12.0986 19.2171C10.7608 19.7331 9.3523 19.9947 7.91022 19.9982H7.88725L7.88902 20ZM7.04604 1.58876C6.25784 1.58876 5.44314 1.7054 4.68852 1.92454C4.05231 2.10657 3.48326 2.43174 3.03968 2.86472C2.51303 3.37722 2.15782 3.90033 1.98462 4.42167C1.8185 4.9165 1.76018 5.45728 1.72661 5.87258C1.71424 6.0228 1.7054 6.17478 1.69656 6.32677C1.64885 7.11849 1.61704 7.88195 1.60113 8.61889C1.5923 9.04833 1.58699 9.47778 1.58699 9.90722C1.58699 11.3864 1.64355 12.8727 1.75311 14.3254C1.89096 15.9477 3.04674 17.3774 4.63197 17.8775C5.68879 18.2345 6.78095 18.413 7.89078 18.413C8.46691 18.413 9.30282 18.3653 10.2748 18.1302C10.4286 18.0931 11.0453 17.9288 11.526 17.7397C13.3587 17.0222 14.5922 15.2337 14.5922 13.2897C14.5922 12.2135 14.1875 11.1019 13.4824 10.2359C13.4223 10.1635 13.3587 10.0928 13.2933 10.0221C12.134 11.6727 10.2183 12.6942 8.16471 12.6942C6.35681 12.6942 4.88645 11.2238 4.88645 9.41769C4.88645 7.61156 6.35681 6.13944 8.16471 6.13944C9.78528 6.16595 11.3634 6.64134 12.7172 7.49669C12.7967 7.15207 12.8373 6.79862 12.8373 6.43634C12.8373 4.49766 11.6179 2.73747 9.80118 2.05885C8.92109 1.75135 7.96324 1.58523 7.04604 1.58523V1.58876ZM8.15057 7.7282C7.2316 7.7282 6.47168 8.48635 6.47168 9.41946C6.47168 10.3526 7.2316 11.1107 8.16294 11.1107C9.7517 11.1107 11.2291 10.2925 12.0827 8.98118C10.9287 8.19298 9.55554 7.75117 8.1488 7.7282H8.15057Z" fill="#3EE595"/>
</svg>
